<svg width="749" height="294" viewBox="0 0 749 294" fill="none" xmlns="http://www.w3.org/2000/svg">
<path d="M457.2 169.6H485.872V264H469.808V180.352L470.192 180.48L449.904 264H427.376L406.832 180.416L407.216 180.224V264H391.152V169.6H419.824L438.96 254.784H437.872L457.2 169.6ZM503.128 264V196.032H519.768V264H503.128ZM511.512 183.488C508.781 183.488 506.392 182.763 504.344 181.312C502.339 179.819 501.336 177.749 501.336 175.104C501.336 172.501 502.339 170.475 504.344 169.024C506.392 167.573 508.781 166.848 511.512 166.848C514.2 166.848 516.547 167.573 518.552 169.024C520.557 170.475 521.56 172.501 521.56 175.104C521.56 177.749 520.557 179.819 518.552 181.312C516.547 182.763 514.2 183.488 511.512 183.488ZM584.512 264V233.856C584.512 232.149 584.512 230.656 584.512 229.376C584.512 228.053 584.512 226.859 584.512 225.792C584.512 222.72 584.064 219.968 583.168 217.536C582.315 215.061 580.821 213.12 578.688 211.712C576.597 210.304 573.696 209.6 569.984 209.6C566.741 209.6 563.861 210.389 561.344 211.968C558.827 213.504 556.843 215.637 555.392 218.368C553.984 221.056 553.28 224.171 553.28 227.712L547.584 224.192C547.584 218.517 548.864 213.483 551.424 209.088C554.027 204.651 557.504 201.173 561.856 198.656C566.208 196.139 571.029 194.88 576.32 194.88C581.781 194.88 586.368 195.947 590.08 198.08C593.835 200.213 596.651 203.243 598.528 207.168C600.448 211.093 601.408 215.701 601.408 220.992C601.408 223.04 601.408 225.344 601.408 227.904C601.408 230.464 601.408 232.981 601.408 235.456V264H584.512ZM536.448 264V196.032H553.28V264H536.448ZM623.845 235.456V223.488H671.397L669.477 226.688C669.477 226.432 669.477 226.155 669.477 225.856C669.477 225.515 669.477 225.237 669.477 225.024C669.477 222.08 668.816 219.328 667.493 216.768C666.17 214.165 664.165 212.075 661.477 210.496C658.789 208.875 655.376 208.064 651.237 208.064C647.141 208.064 643.578 208.939 640.549 210.688C637.562 212.395 635.237 214.869 633.573 218.112C631.952 221.355 631.141 225.237 631.141 229.76C631.141 234.411 631.93 238.421 633.509 241.792C635.088 245.12 637.392 247.68 640.421 249.472C643.493 251.221 647.226 252.096 651.621 252.096C654.608 252.096 657.189 251.819 659.365 251.264C661.541 250.709 663.312 249.963 664.677 249.024C666.085 248.043 667.13 246.997 667.813 245.888C668.538 244.779 668.965 243.669 669.093 242.56H685.861C685.605 245.419 684.645 248.213 682.981 250.944C681.36 253.632 679.077 256.085 676.133 258.304C673.189 260.48 669.605 262.229 665.381 263.552C661.2 264.832 656.421 265.472 651.045 265.472C643.749 265.472 637.37 263.979 631.909 260.992C626.448 258.005 622.181 253.845 619.109 248.512C616.08 243.179 614.565 237.077 614.565 230.208C614.565 223.168 616.101 217.003 619.173 211.712C622.288 206.421 626.597 202.304 632.101 199.36C637.605 196.373 643.92 194.88 651.045 194.88C658.384 194.88 664.72 196.373 670.053 199.36C675.429 202.347 679.568 206.507 682.469 211.84C685.37 217.131 686.821 223.296 686.821 230.336C686.821 231.232 686.8 232.192 686.757 233.216C686.714 234.24 686.65 234.987 686.565 235.456H623.845ZM700.698 264V196.032H717.53V218.624L713.626 216.448C714.053 213.504 714.842 210.731 715.994 208.128C717.146 205.483 718.682 203.179 720.602 201.216C722.522 199.211 724.847 197.653 727.578 196.544C730.309 195.435 733.423 194.88 736.922 194.88C739.695 194.88 741.871 195.093 743.45 195.52C745.071 195.904 746.074 196.224 746.458 196.48L743.386 211.904C742.959 211.605 742.085 211.243 740.762 210.816C739.482 210.347 737.754 210.112 735.578 210.112C732.122 210.112 729.221 210.709 726.874 211.904C724.57 213.056 722.735 214.635 721.37 216.64C720.005 218.603 719.023 220.779 718.426 223.168C717.829 225.515 717.53 227.861 717.53 230.208V264H700.698Z" fill="#88A6F3"/>
<path d="M346.663 66.1456C344.535 68.1463 340.872 71.3714 338.834 74.129C335.374 78.5701 334.532 79.626 334.659 82.7099C334.777 84.9685 335.904 87.8341 337.964 91.3004C339.547 94.1281 342.541 98.1953 344.554 100.383C346.636 102.652 349.963 106.11 352 108C353.956 109.959 356.115 111.52 356.146 111.148C356.17 110.85 354.968 107.979 353.49 104.785C351.937 101.584 350.205 96.8705 349.58 94.3456C348.796 90.9833 348.606 87.7443 349.049 82.3078C349.561 76.9519 350.08 74.2954 351.039 72.7243C352.335 70.7308 352.752 70.24 351.767 66.5614L351.922 60.9516L346.663 66.1456ZM293.644 125.173C288.91 130.41 281.095 139.144 276.274 144.524C271.453 149.904 262.634 159.831 256.722 166.546C250.81 173.261 244.73 180.187 243.227 181.939C241.799 183.697 235.706 190.772 229.701 197.705C223.695 204.637 214.985 215.098 210.358 220.868C205.726 226.713 201.457 232.737 200.948 234.345C200.364 235.947 200.095 238.324 200.298 239.54C200.496 240.83 201.07 243.051 201.556 244.515C202.041 245.979 204.125 249.147 206.202 251.491C208.623 254.237 211.819 256.746 215.502 258.845C218.539 260.517 222.246 262.318 223.642 262.807C225.113 263.301 227.17 263.094 227.552 263.05C228.396 262.894 227.274 261.828 226.395 260.557C225.447 259.205 224.344 256.042 223.833 253.976C223.402 251.842 223.699 248.193 223.899 245.735C224.1 243.278 224.709 239.504 225.585 237.102C226.386 234.693 227.74 231.055 228.748 228.888C229.755 226.721 231.274 223.846 231.99 222.48C232.781 221.12 234.206 218.463 235.184 216.668C236.161 214.874 239.402 210.34 242.138 206.439C244.949 202.545 249.593 196.551 252.617 192.824C255.635 189.172 260.811 183.147 264.222 179.301C267.634 175.456 270.564 171.946 271.787 170.847C273.017 169.672 274.97 167.957 275.4 167.318C275.755 166.672 278.142 163.343 280.675 161C283.139 158.577 287.326 154.495 291.22 151.214C294.964 147.921 297.753 145.224 298.471 144.758C299.427 144.161 300.364 143.788 302.909 145.944C304.676 147.437 308.842 150.101 311.417 151.885C313.923 153.588 317.939 156.239 321.133 157.849C324.327 159.458 328.835 161.625 331.033 162.478C333.23 163.332 334.611 164.778 335.5 165C336.088 165.198 339.474 161.817 341.452 159.804C343.354 157.785 345.738 155.43 345.831 155.213C345.849 154.989 342.115 152.586 338.487 149.817C334.784 147.041 328.122 141.626 323.465 137.573C318.813 133.446 312.579 126.491 309.06 122.381L302.943 114.911L293.644 125.173Z" fill="#996E4B"/>
<path d="M215.938 27.2781C215.478 28.2901 214.521 30.761 213.831 32.7289C212.931 35.4294 212.798 37.0678 213.241 39.053C213.564 40.6536 214.97 42.8672 216.795 44.5901C218.481 46.1518 227.734 52.2281 237.462 58.0432C247.189 63.8584 258.49 70.7761 262.656 73.4394C266.822 76.1027 274.703 81.3926 280.21 85.2147C285.724 88.9623 291.288 93.0139 292.554 94.1666C293.82 95.3193 295.363 96.7943 295.399 96.3474C295.429 95.9751 298.124 90.7221 302.089 85.6475C306.054 80.5729 311.411 76.9611 311.429 76.7376C311.448 76.5142 306.945 74.2733 304.538 72.2781C302.282 70.2951 296.152 67.6218 291.505 65.2941C286.928 63.0471 277.673 58.8448 270.604 55.6452C263.616 52.3772 252.551 47.2028 247.16 44.7396C241.769 42.2763 236.221 39.8753 234.624 39.0706C233.034 38.1913 230.873 36.8908 229.132 35.9993C227.322 35.0273 224.617 33.9074 223.395 33.1332C222.249 32.3651 220.737 30.5177 219.596 29.6751C218.525 28.9132 217.553 27.8594 217.319 27.0158C216.834 25.5519 216.834 25.5519 215.938 27.2781ZM376 149C375.284 150.366 374.893 153.875 373.444 156.83C372.337 159.289 368.249 163.72 368 164C367.751 164.28 373.658 167.193 377.365 171.768C381.148 176.349 387.292 184.421 391.014 189.747C394.811 195.079 399.583 202.365 401.706 205.986C403.904 209.614 407.203 215.505 409.17 219.189C411.137 222.872 414.773 231.115 417.353 237.472C419.852 243.898 422.264 250.467 422.656 252.148C424 255 425.806 260.684 428.5 267.5C431.194 274.316 434.386 280.045 436 282.5C437.608 285.03 441.192 289.209 442 289.5C442.801 289.865 442.31 290.107 442.859 289.852C443.484 289.603 444.173 287.635 442.787 286.098C441.677 284.883 438.495 280.351 436.322 274.551C434.069 268.82 430.051 257.848 427.273 250.2C424.496 242.552 419.623 230.011 416.797 222.958C413.971 215.906 409.777 207.094 407.991 203.05C406.279 199.012 404.491 194.069 403.723 192.357C402.881 190.639 401.472 187.526 400.573 185.578C399.673 183.631 397.697 180.996 396.665 178.813C395.553 176.698 394.397 172.331 393.159 169.906C391.915 167.556 389.147 163.507 387.5 160.524C385.848 157.616 384.094 154.099 383.378 152.692C382.73 151.365 381.125 149.734 380.453 148.705L373.444 144L376 149Z" fill="#8782D4"/>
<path d="M350.874 71.9612C350.339 72.9671 349.289 75.6553 348.857 78.169C348.345 80.7511 348.212 85.1633 348.432 88.0299C348.747 91.579 348.671 96.2208 350.56 100.873C352.208 104.755 353.022 107.745 354.441 109.81C355.038 110.833 356.682 112.916 358.737 114.583C360.793 116.25 363.782 118.517 365.079 119.297C366.375 120.078 369.263 121.737 371.253 122.349C374.207 123.19 376.873 123.857 379.523 122.873C381.553 122.064 384.097 118.673 386.841 115.598C389.098 112.933 391.735 109.324 392.745 108.057C393.755 106.79 395.182 105.032 395.213 104.66C395.249 104.213 392.829 104.241 390.952 104.088C389.075 103.935 385.977 103.008 384.098 101.955C382.213 100.977 377.789 97.768 374.323 94.8618C370.776 92.024 365.108 86.4646 361.727 82.5159C358.271 78.561 354.926 74.1654 354.204 72.8322C353.487 71.4244 352.417 68.7884 352.117 68.7639C351.817 68.7395 351.334 70.9492 350.874 71.9612ZM299.043 143.305C298.4 143.778 294.968 146.946 291.362 150.401C287.756 153.856 282.758 158.621 280.294 161.044C277.835 163.393 275.44 165.897 275.01 166.536C274.58 167.176 273.252 168.642 272.029 169.742C270.805 170.842 266.994 174.954 263.583 178.799C260.172 182.645 254.909 188.813 251.891 192.465C248.873 196.118 244.135 202.329 241.324 206.223C238.588 210.123 235.492 214.744 234.439 216.532C233.462 218.327 232.042 220.91 231.251 222.27C230.536 223.636 229.011 226.586 228.003 228.752C226.995 230.919 225.479 234.694 224.678 237.103C223.802 239.505 222.2 243.042 222 245.5C221.8 247.958 222 250.5 222 253.5C222 255.5 222.5 257 222.5 259C222.5 260.5 223.332 261.805 225.5 263.172C226.657 263.895 227.629 263.956 229.281 264.091C230.857 264.219 233.233 263.813 234.57 263.172C235.831 262.525 241.916 257.398 248.05 251.676C254.177 246.028 262.85 237.888 267.28 233.601C271.716 229.24 277.05 224.052 279.103 222.045C281.156 220.038 284.855 216.366 287.32 213.943C289.79 211.445 297.763 203.549 305 196.342C312.237 189.135 320.877 180.468 324.327 177.075C327.702 173.677 331.988 169.303 333.885 167.359L337.272 163.811C331.463 161.839 326.648 159.722 322.872 157.841C319.095 155.959 313.903 152.912 311.328 151.128C308.753 149.344 305.187 146.729 303.42 145.236C300.875 143.08 299.924 142.702 299.043 143.305Z" fill="#A67C52"/>
<path d="M251.14 4.08914C248.977 4.66265 244.459 6.31874 241.017 7.76255C237.574 9.20636 231.716 12.4775 227.963 14.9455C223.886 17.6871 219.904 21.111 217.972 23.5024C216.276 25.7633 215.236 27.4027 215.629 27.2099C216.023 27.0171 216.374 27.3455 216.332 27.8668C216.295 28.3137 217.087 29.7275 218.122 30.9363C219.232 32.1512 223.68 35.0624 228.02 37.44C232.36 39.8177 238.892 43.1235 242.536 44.7697C246.18 46.4159 254.051 49.9807 260.025 52.7163C266.073 55.458 275.535 59.902 281.127 62.6815C286.719 65.461 293.332 68.6984 295.881 69.8806C298.36 70.9821 302.343 73.1058 304.717 74.5736C308.244 76.735 308.352 77.2685 309.341 79.9729C309.946 81.8214 312.487 87.7258 314.968 91.6012C317.517 95.5572 322.511 101.961 325.308 104.738C328.167 107.67 332.323 111.382 334.763 113.904C337.277 116.433 341.541 120.679 344.199 123.294C346.933 125.916 351.331 131.297 355.235 134.388C359.07 137.4 365.505 141.897 369.107 144.065C372.627 146.3 374.851 147.756 376.218 146.743C376.624 146.401 380.703 151.981 383.864 157.711C386.955 163.36 390.173 169.32 391.033 170.814C391.819 172.303 393.252 175.118 394.301 177.078C395.276 179.031 397.671 183.949 399.608 188.005C401.619 192.067 404.89 199.231 406.922 203.969C408.954 208.708 413.309 219.258 416.569 227.47C419.836 235.607 422.524 242.498 422.506 242.722C422.487 242.945 423.967 247.039 425.768 251.833C427.65 256.56 430.937 265.374 433.098 271.322C435.258 277.27 437.907 283.708 439.032 285.674C440.081 287.634 441.605 289.332 442.35 289.468C443.314 289.696 443.744 289.057 444.343 286.332C444.807 284.345 445.184 279.728 445.181 276.054C445.253 272.387 444.94 265.09 444.533 259.884C444.051 254.672 443.097 245.973 442.251 240.582C441.481 235.196 440.288 228.502 439.681 225.754C439.074 223.006 437.412 216.498 435.954 211.207C434.496 205.915 431.59 197.058 429.544 191.568C427.422 186.073 423.829 177.309 421.452 172.168C419.074 167.026 415.447 159.609 413.342 155.764C411.237 151.919 407.405 145.16 404.736 140.819C402.067 136.479 398.283 129.124 396.326 124.392C394.294 119.653 392.024 115.045 391.196 114.078L389.678 112.305C383.604 119.157 381.02 121.196 379.07 121.936C376.421 122.92 375.433 122.99 372.485 122.075C370.488 121.537 367.859 120.423 366.637 119.649C365.346 118.794 361.85 116.261 358.942 113.925C356.034 111.589 346.401 103.682 344.043 101.091C341.829 98.5871 338.456 95.4636 335.94 92.0351C333.492 88.6871 330.149 85.1913 329.35 82.9521C328.537 80.8619 327.879 77.8096 327.97 76.6926C328.061 75.5755 328.219 73.6392 329.217 72.521C330.29 71.409 332.72 70.3325 334.432 69.7223C336.144 69.1121 337.225 69.4279 339 68.9727C340.5 68.9727 340.05 68.847 341.5 68.9727C341.5 68.9727 342.45 68.9727 343.637 68.9727L345.353 67.3883C335.811 58.3648 330.181 53.2583 326.728 50.2032C323.274 47.1481 317.827 42.5813 314.706 40.0781C311.591 37.5004 305.193 32.5563 300.487 29.0993C295.781 25.6424 288.056 20.2903 283.326 17.1312C278.596 13.9722 271.606 9.80441 267.842 7.77358C264.078 5.74276 259.626 3.80585 257.987 3.52238C256.272 3.2328 253.302 3.51563 251.14 4.08914Z" fill="#88A6F3"/>
<path d="M352.571 60.4047C350.423 61.7291 350.336 61.8719 351.063 65.0047C351.443 66.8349 352.552 69.9238 353.52 71.9518C354.482 74.0543 358.16 79.0017 361.61 83.0311C365.135 87.0665 371.085 92.8738 374.77 95.8728C378.455 98.8717 382.666 101.914 384.038 102.7C385.415 103.412 388.514 104.339 390.823 104.752C395.065 105.547 395.14 105.553 396.148 103.387C396.776 102.163 397.19 99.873 397.098 98.2163C397.006 96.5595 396.336 93.6562 395.587 91.721C394.838 89.7859 392.582 85.9288 390.474 83.0583C388.44 80.1938 383.988 75.4831 380.603 72.5086C377.218 69.5341 371.873 65.5753 368.697 63.7424C364.801 61.4759 361.589 60.0898 358.83 59.6401C355.47 59.1415 354.326 59.2732 352.496 60.3986L352.571 60.4047Z" fill="#C69C6C"/>
<path d="M333.931 69.3816C331.994 69.9735 329.764 71.3662 328.917 72.4966C328.069 73.627 327.242 75.4338 327.226 76.557C327.129 77.7485 327.811 80.5029 328.692 82.6737C329.642 84.9251 332.593 89.5135 335.266 92.8798C337.939 96.2462 342.743 101.285 345.989 104.099C349.167 106.831 356.493 112.451 357.031 112.345C357.568 112.239 353.118 108.428 352.247 107.982C351.452 107.542 348.449 104.524 345.55 101.139C342.646 97.829 339.176 93.1233 337.856 90.7669C336.336 88.0942 335.366 85.1664 335.235 83.0567C335.102 80.0473 335.4 79.172 338.019 75.7869C339.627 73.6689 342.74 70.6989 343.339 69.8481C344.292 68.3514 344.586 68.4504 340.202 68.4681C338.613 68.4886 335.793 68.7837 333.931 69.3816Z" fill="#8782D4"/>
<path d="M301.507 86.1567C297.629 91.0885 294.214 95.908 293.979 96.9384C293.744 97.9688 294.156 100.326 294.905 102.262C295.73 104.203 297.484 107.719 298.803 110.076C300.122 112.432 304.352 118.024 308.072 122.45C311.867 126.883 318.777 133.893 323.359 137.939C328.01 142.066 334.81 147.643 338.439 150.412C342.067 153.182 344.105 154.634 344 155L346.5 156.5C347.5 157 349.911 158.404 352.5 159.5C355.5 161 359.935 162.959 362.815 163.793C365.907 164.794 368.372 165.145 369.003 164.822C369.634 164.498 372.328 160.435 374.5 156.039L376.5 150.044L376.5 147C367.825 142.17 364.311 139.851 361.172 137.571C358.039 135.217 354.336 132.441 352.994 131.282C351.653 130.123 347.848 126.74 344.619 123.703C341.391 120.666 335.453 114.71 331.351 110.328C327.319 106.026 322.822 100.937 321.466 99.0275C320.104 97.1923 317.606 93.5403 315.917 91.0788C314.234 88.5429 312.18 85.0021 311.419 83.2158C310.664 81.3551 309.701 79.2527 309.306 78.5457C308.646 77.3675 307.579 78.4051 301.507 86.1567Z" fill="#6D65E0"/>
<path d="M82.816 230.016C82.816 234.027 82.0693 238.101 80.576 242.24C79.0827 246.379 76.8 250.219 73.728 253.76C70.6987 257.259 66.8587 260.075 62.208 262.208C57.5573 264.341 52.096 265.408 45.824 265.408C37.3333 265.408 30.08 263.339 24.064 259.2C18.0907 255.019 13.5253 249.28 10.368 241.984C7.25333 234.688 5.696 226.304 5.696 216.832C5.696 207.317 7.25333 198.912 10.368 191.616C13.5253 184.32 18.0907 178.603 24.064 174.464C30.08 170.325 37.3333 168.256 45.824 168.256C52.864 168.256 58.88 169.6 63.872 172.288C68.864 174.976 72.8533 178.432 75.84 182.656C78.8267 186.88 80.832 191.296 81.856 195.904C82.496 198.592 82.816 201.152 82.816 203.584H65.856C65.856 202.347 65.7707 201.067 65.6 199.744C65.1307 196.501 64.0427 193.557 62.336 190.912C60.672 188.224 58.4533 186.112 55.68 184.576C52.9067 182.997 49.6213 182.208 45.824 182.208C41.3013 182.208 37.312 183.467 33.856 185.984C30.4427 188.501 27.7547 192.32 25.792 197.44C23.8293 202.56 22.848 209.024 22.848 216.832C22.848 224.555 23.8293 230.997 25.792 236.16C27.7547 241.323 30.4427 245.184 33.856 247.744C37.312 250.304 41.3013 251.584 45.824 251.584C49.0667 251.584 51.9253 250.987 54.4 249.792C56.8747 248.597 58.9653 246.997 60.672 244.992C62.3787 242.944 63.6587 240.64 64.512 238.08C65.408 235.52 65.856 232.832 65.856 230.016H82.816ZM101.364 293.184C99.3587 293.184 97.5667 293.077 95.988 292.864C94.4093 292.693 93.428 292.523 93.044 292.352V279.232C93.5987 279.488 94.5373 279.68 95.86 279.808C97.2253 279.979 98.6333 280.064 100.084 280.064C102.431 280.064 104.457 279.595 106.164 278.656C107.913 277.717 109.407 276.416 110.644 274.752C111.881 273.131 112.863 271.232 113.588 269.056L115.06 264.768L91.636 196.032H109.236L125.3 252.736H123.252L138.932 196.032H156.212L132.404 268.16C130.74 273.152 128.713 277.525 126.324 281.28C123.977 285.035 120.841 287.957 116.916 290.048C112.991 292.139 107.807 293.184 101.364 293.184ZM205.345 265.408C200.054 265.408 195.148 264.043 190.625 261.312C186.145 258.539 182.518 254.763 179.745 249.984C177.014 245.205 175.649 239.829 175.649 233.856C175.649 233.685 175.649 233.536 175.649 233.408C175.649 233.237 175.649 233.088 175.649 232.96L183.969 232.768C183.969 232.853 183.969 232.96 183.969 233.088C183.969 233.216 183.969 233.323 183.969 233.408C183.969 236.736 184.801 239.701 186.465 242.304C188.129 244.864 190.284 246.891 192.929 248.384C195.617 249.835 198.476 250.56 201.505 250.56C206.412 250.56 210.593 248.875 214.049 245.504C217.505 242.133 219.233 236.907 219.233 229.824C219.233 222.699 217.505 217.493 214.049 214.208C210.636 210.88 206.454 209.216 201.505 209.216C198.518 209.216 195.681 209.941 192.993 211.392C190.348 212.8 188.172 214.763 186.465 217.28C184.801 219.797 183.969 222.741 183.969 226.112L175.649 225.728C175.649 219.712 177.014 214.379 179.745 209.728C182.518 205.077 186.145 201.451 190.625 198.848C195.148 196.203 200.054 194.88 205.345 194.88C210.849 194.88 215.969 196.245 220.705 198.976C225.484 201.664 229.324 205.611 232.225 210.816C235.169 215.979 236.641 222.315 236.641 229.824C236.641 237.547 235.212 244.053 232.353 249.344C229.494 254.635 225.697 258.645 220.961 261.376C216.225 264.064 211.02 265.408 205.345 265.408ZM167.073 264V163.968H183.969V264H167.073ZM256.845 235.456V223.488H304.397L302.477 226.688C302.477 226.432 302.477 226.155 302.477 225.856C302.477 225.515 302.477 225.237 302.477 225.024C302.477 222.08 301.816 219.328 300.493 216.768C299.17 214.165 297.165 212.075 294.477 210.496C291.789 208.875 288.376 208.064 284.237 208.064C280.141 208.064 276.578 208.939 273.549 210.688C270.562 212.395 268.237 214.869 266.573 218.112C264.952 221.355 264.141 225.237 264.141 229.76C264.141 234.411 264.93 238.421 266.509 241.792C268.088 245.12 270.392 247.68 273.421 249.472C276.493 251.221 280.226 252.096 284.621 252.096C287.608 252.096 290.189 251.819 292.365 251.264C294.541 250.709 296.312 249.963 297.677 249.024C299.085 248.043 300.13 246.997 300.813 245.888C301.538 244.779 301.965 243.669 302.093 242.56H318.861C318.605 245.419 317.645 248.213 315.981 250.944C314.36 253.632 312.077 256.085 309.133 258.304C306.189 260.48 302.605 262.229 298.381 263.552C294.2 264.832 289.421 265.472 284.045 265.472C276.749 265.472 270.37 263.979 264.909 260.992C259.448 258.005 255.181 253.845 252.109 248.512C249.08 243.179 247.565 237.077 247.565 230.208C247.565 223.168 249.101 217.003 252.173 211.712C255.288 206.421 259.597 202.304 265.101 199.36C270.605 196.373 276.92 194.88 284.045 194.88C291.384 194.88 297.72 196.373 303.053 199.36C308.429 202.347 312.568 206.507 315.469 211.84C318.37 217.131 319.821 223.296 319.821 230.336C319.821 231.232 319.8 232.192 319.757 233.216C319.714 234.24 319.65 234.987 319.565 235.456H256.845ZM333.698 264V196.032H350.53V218.624L346.626 216.448C347.053 213.504 347.842 210.731 348.994 208.128C350.146 205.483 351.682 203.179 353.602 201.216C355.522 199.211 357.847 197.653 360.578 196.544C363.309 195.435 366.423 194.88 369.922 194.88C372.695 194.88 374.871 195.093 376.45 195.52C378.071 195.904 379.074 196.224 379.458 196.48L376.386 211.904C375.959 211.605 375.085 211.243 373.762 210.816C372.482 210.347 370.754 210.112 368.578 210.112C365.122 210.112 362.221 210.709 359.874 211.904C357.57 213.056 355.735 214.635 354.37 216.64C353.005 218.603 352.023 220.779 351.426 223.168C350.829 225.515 350.53 227.861 350.53 230.208V264H333.698Z" fill="white"/>
<path d="M443.5 289L450 264H437L443.5 289Z" fill="#88A6F3"/>
</svg>
