<svg version="1.2" xmlns="http://www.w3.org/2000/svg" viewBox="0 0 300 300" width="300" height="300">
	<title>2797009-ai</title>
	<style>
		.s0 { fill: #a1b9a5 } 
		.s1 { fill: #7b9186 } 
		.s2 { fill: #c5dcbd } 
	</style>
	<g id="Moon">
		<path id="&lt;Path&gt;" class="s0" d="m121.2 52.2c-55.8 16.6-87.5 75.3-71 131.1 16.6 55.7 75.3 87.5 131.1 71 55.7-16.6 87.5-75.3 71-131.1-16.6-55.8-75.3-87.5-131.1-71z"/>
		<path id="&lt;Path&gt;" class="s1" d="m238.4 133.9c0 55.4-44.9 100.3-100.3 100.3-38.3 0-71.6-21.5-88.5-53.1 12.2 44.7 53.1 77.5 101.6 77.5 58.2 0 105.4-47.2 105.4-105.4 0-34.3-16.5-64.9-41.9-84.1 14.8 17.5 23.7 40.1 23.7 64.8z"/>
		<path id="&lt;Compound Path&gt;" class="s2" d="m73.8 132.4c-1.3 4.1-5.6 6.5-9.7 5.3-4.2-1.3-6.5-5.6-5.3-9.7 3.8-13 10.4-24.9 18.9-35.2 8.7-10.4 19.4-19.1 31.4-25.5 3.8-2 8.6-0.6 10.6 3.3 2 3.8 0.5 8.5-3.3 10.5-10.3 5.4-19.4 12.8-26.7 21.7-7.2 8.6-12.7 18.7-15.9 29.6zm64-59.2c-4.2 0.9-8.4-1.7-9.4-5.9-0.9-4.2 1.7-8.4 5.9-9.3q3.1-0.7 6.5-1.3 3.3-0.5 6.6-0.8c4.2-0.4 8 2.8 8.4 7.1 0.4 4.3-2.8 8.1-7 8.4q-2.8 0.3-5.6 0.7-2.6 0.5-5.4 1.1z"/>
		<path id="&lt;Path&gt;" class="s1" d="m135.4 248.5c8.8 0 16-7.2 16-16 0-8.8-7.2-16-16-16-8.8 0-16 7.2-16 16 0 8.8 7.2 16 16 16z"/>
		<path id="&lt;Path&gt;" class="s1" d="m160.1 226c5.2 0 9.5-4.2 9.5-9.4 0-5.3-4.3-9.5-9.5-9.5-5.2 0-9.4 4.2-9.4 9.5 0 5.2 4.2 9.4 9.4 9.4z"/>
		<path id="&lt;Path&gt;" class="s1" d="m113.5 225.9c1.8 0 3.3-1.5 3.3-3.4 0-1.8-1.5-3.3-3.3-3.3-1.9 0-3.4 1.5-3.4 3.3 0 1.9 1.5 3.4 3.4 3.4z"/>
		<path id="&lt;Path&gt;" class="s1" d="m232.7 160.3c10.2-0.1 18.5-8.4 18.5-18.6 0-10.2-8.3-18.5-18.5-18.5-10.2 0-18.5 8.3-18.5 18.5 0 10.2 8.3 18.5 18.5 18.5z"/>
		<path id="&lt;Path&gt;" class="s0" d="m232.7 152.8c6.1 0 11.1-5 11.1-11.1 0-6-5-11-11.1-11-6.1 0-11 5-11 11 0 6.1 4.9 11.1 11 11.1z"/>
		<path id="&lt;Path&gt;" class="s1" d="m217 179.5c4.6 0 8.3-3.7 8.3-8.3 0-4.5-3.7-8.3-8.3-8.3-4.5 0-8.2 3.8-8.2 8.3 0 4.6 3.7 8.3 8.2 8.3z"/>
		<path id="&lt;Path&gt;" class="s1" d="m235.2 119.3c3 0 5.4-2.4 5.4-5.4 0-3-2.4-5.4-5.4-5.4-3 0-5.4 2.4-5.4 5.4 0 3 2.4 5.4 5.4 5.4z"/>
		<path id="&lt;Path&gt;" class="s0" d="m204.5 228.6c9.9 0 18-8.1 18-18 0-9.9-8.1-18-18-18-9.9 0-18 8.1-18 18 0 9.9 8.1 18 18 18z"/>
		<path id="&lt;Path&gt;" class="s0" d="m187.6 236.7c2.8 0 5.1-2.3 5.1-5.1 0-2.9-2.3-5.2-5.1-5.2-2.9 0-5.2 2.3-5.2 5.2 0 2.8 2.3 5.1 5.2 5.1z"/>
		<path id="&lt;Path&gt;" class="s0" d="m226 200.7c1.4 0 2.6-1.2 2.6-2.6 0-1.4-1.2-2.6-2.6-2.6-1.4 0-2.6 1.2-2.6 2.6 0 1.4 1.2 2.6 2.6 2.6z"/>
		<path id="&lt;Path&gt;" class="s1" d="m212.4 192.3c1.8 0 3.3-1.5 3.3-3.3 0-1.9-1.5-3.4-3.3-3.4-1.9 0-3.4 1.5-3.4 3.4 0 1.8 1.5 3.3 3.4 3.3z"/>
		<path id="&lt;Path&gt;" class="s2" d="m84.5 132.7c1.8 0 3.3-1.5 3.3-3.4 0-1.8-1.5-3.3-3.3-3.3-1.9 0-3.4 1.5-3.4 3.3 0 1.9 1.5 3.4 3.4 3.4z"/>
		<path id="&lt;Path&gt;" class="s2" d="m100 190.3c11.1 0 20.1-9 20.1-20.1 0-11.1-9-20.2-20.1-20.2-11.1 0-20.2 9.1-20.2 20.2 0 11.1 9.1 20.1 20.2 20.1z"/>
		<path id="&lt;Path&gt;" class="s0" d="m100 184.3c7.8 0 14.1-6.3 14.1-14.1 0-7.8-6.3-14.2-14.1-14.2-7.8 0-14.2 6.4-14.2 14.2 0 7.8 6.4 14.1 14.2 14.1z"/>
		<path id="&lt;Path&gt;" class="s2" d="m98.9 144.9c4.1 0 7.5-3.4 7.5-7.5 0-4.2-3.4-7.5-7.5-7.5-4.2 0-7.6 3.3-7.6 7.5 0 4.1 3.4 7.5 7.6 7.5z"/>
		<path id="&lt;Path&gt;" class="s2" d="m169.4 98.5c4.2 0 7.5-3.4 7.5-7.5 0-4.2-3.3-7.5-7.5-7.5-4.1 0-7.5 3.3-7.5 7.5 0 4.1 3.4 7.5 7.5 7.5z"/>
		<path id="&lt;Path&gt;" class="s2" d="m134.8 87c2.1 0 3.7-1.7 3.7-3.8 0-2-1.6-3.7-3.7-3.7-2.1 0-3.8 1.7-3.8 3.7 0 2.1 1.7 3.8 3.8 3.8z"/>
		<path id="&lt;Path&gt;" class="s2" d="m163.7 163.4c5.6 0 10.2-4.6 10.2-10.2 0-5.7-4.6-10.3-10.2-10.3-5.7 0-10.3 4.6-10.3 10.3 0 5.6 4.6 10.2 10.3 10.2z"/>
	</g>
</svg>