<svg version="1.2" xmlns="http://www.w3.org/2000/svg" viewBox="0 0 413 369" width="413" height="369">
	<title>7378032-removebg-preview</title>
	<style>
		.s0 { fill: #996e4b } 
		.s1 { fill: #8782d4 } 
		.s2 { fill: #a67c52 } 
		.s3 { fill: #88a6f3 } 
		.s4 { fill: #c69c6c } 
		.s5 { fill: #6d65e0 } 
	</style>
	<g id="Pickaxe">
		<path id="Path 0" class="s0" d="m254.6 78.2c-2.6 2.9-7.1 7.6-9.5 11.5-4.1 6.3-5.1 7.8-4.6 11.9 0.4 3 2.2 6.7 5.3 11.1 2.4 3.6 6.8 8.7 9.7 11.4 3 2.8 8.4 7.3 11.3 9.6 2.8 2.4 5.2 4 5.2 3.5 0-0.4-1.9-4.1-4.2-8.2-2.4-4.1-5.2-10.2-6.3-13.5-1.4-4.4-2-8.7-2-16 0.1-7.2 0.5-10.8 1.6-13 1.5-2.8 2-3.5 0.3-8.3l-0.4-7.5zm-63.8 84.5c-5.7 7.5-15.1 20-20.9 27.7-5.8 7.7-16.4 21.9-23.5 31.5-7.1 9.6-14.4 19.5-16.2 22-1.7 2.5-9 12.6-16.2 22.5-7.2 9.9-17.6 24.8-23.1 33-5.5 8.3-10.5 16.8-11 19-0.6 2.2-0.7 5.4-0.3 7 0.4 1.7 1.4 4.6 2.2 6.5 0.8 1.9 3.9 5.9 6.9 8.8 3.5 3.4 8 6.4 13.1 8.8 4.2 1.9 9.3 3.9 11.2 4.4 2 0.5 4.7 0 5.2-0.1 1.1-0.3-0.5-1.6-1.8-3.2-1.4-1.7-3.2-5.8-4.1-8.5-0.8-2.8-0.8-7.7-0.8-11 0-3.3 0.4-8.4 1.3-11.7 0.8-3.3 2.2-8.3 3.3-11.3 1.1-3 2.8-7 3.6-8.9 0.9-1.9 2.5-5.6 3.6-8.1 1.1-2.5 4.9-8.9 8.1-14.4 3.3-5.5 8.8-14 12.4-19.3 3.6-5.2 9.8-13.8 13.9-19.3 4.1-5.5 7.6-10.5 9.1-12.1 1.5-1.7 3.9-4.2 4.4-5.1 0.4-0.9 3.2-5.6 6.3-9 3-3.5 8.1-9.4 12.9-14.2 4.6-4.8 8-8.7 8.9-9.4 1.2-0.9 2.4-1.5 6 1.1 2.5 1.8 8.3 4.9 11.9 7 3.5 2 9.1 5.1 13.5 6.9 4.4 1.8 10.6 4.2 13.6 5.1 3 0.9 5.5 1.4 6.7 1.6 0.8 0.2 4.4-3.4 6.8-6.3 2.3-2.9 5.2-6.3 5.3-6.6 0-0.3-5.2-3.1-10.3-6.4-5.2-3.3-14.6-9.8-21.2-14.7-6.6-5-15.6-13.6-20.7-18.7l-8.9-9.3z"/>
		<path id="Path 1" class="s1" d="m76.2 42c-0.5 1.4-1.5 4.8-2.2 7.5-0.9 3.7-0.9 5.9-0.1 8.5 0.6 2.1 2.7 4.9 5.3 7 2.4 1.9 15.3 9 28.8 15.7 13.5 6.7 29.2 14.7 35 17.8 5.8 3.1 16.8 9.3 24.5 13.8 7.7 4.4 15.5 9.2 17.3 10.6 1.8 1.4 4 3.2 4 2.6 0-0.5 3-7.8 7.7-15 4.7-7.2 11.4-12.6 11.4-12.9 0-0.3-6.2-2.8-9.6-5.2-3.2-2.4-11.6-5.3-18-7.9-6.3-2.5-19-7.1-28.7-10.6-9.6-3.6-24.8-9.3-32.2-12-7.4-2.7-15-5.3-17.2-6.2-2.2-1-5.2-2.5-7.6-3.5-2.5-1.1-6.2-2.3-7.9-3.2-1.6-0.9-3.8-3.2-5.4-4.2-1.5-0.9-2.9-2.2-3.3-3.3-0.8-1.9-0.8-1.9-1.8 0.5zm227.6 145.1c-0.8 1.9-3.6 6.5-5.2 10.6-1.2 3.4-3.9 8.1-4.2 8.5-0.3 0.4 5.6 5.3 11 11 5.5 5.7 14.5 15.8 20 22.5 5.6 6.7 12.7 15.9 15.9 20.5 3.3 4.6 8.3 12.1 11.3 16.8 3 4.7 8.7 15.3 12.8 23.5 4 8.3 7.9 16.8 8.6 19 0.7 2.2 4.7 11.2 9 20 4.3 8.8 9.7 18.6 12.1 21.7 2.4 3.2 5.3 6.1 6.4 6.4 1.1 0.4 2.6 0.4 3.3 0 0.8-0.4 1.5-3.1-0.5-5-1.6-1.5-6.3-7.2-9.8-14.7-3.6-7.4-10.1-21.6-14.6-31.5-4.5-9.9-12.3-26.1-16.8-35.2-4.5-9.1-11-20.4-13.8-25.6-2.7-5.2-5.6-11.6-6.8-13.8-1.3-2.2-3.5-6.2-4.9-8.7-1.4-2.5-4.3-5.8-5.9-8.6-1.7-2.7-3.7-8.4-5.6-11.5-1.9-3-6-8.1-8.5-11.9-2.5-3.7-5.2-8.2-6.3-10-1-1.7-3.3-3.7-4.3-5l-2.4-2.9z"/>
		<path id="Path 2" class="s2" d="m260.8 85.5c-0.6 1.4-1.7 5.1-2 8.5-0.4 3.5-0.1 9.4 0.5 13.2 0.8 4.7 1.2 10.9 4.2 16.9 2.6 5 4 8.9 6.1 11.5 0.9 1.3 3.3 3.9 6.2 5.9 2.9 2 7.1 4.7 8.9 5.6 1.8 0.9 5.8 2.8 8.5 3.4 4 0.8 7.6 1.4 11-0.2 2.6-1.3 5.6-6.1 8.9-10.5 2.7-3.8 5.8-8.9 7-10.7 1.2-1.8 2.9-4.3 2.9-4.8 0-0.6-3.2-0.3-5.7-0.3-2.5 0-6.7-0.9-9.3-2.1-2.6-1.1-8.8-4.9-13.7-8.4-5-3.4-13.1-10.2-18-15.1-5-4.9-9.9-10.4-11-12.1-1.1-1.8-2.8-5.2-3.2-5.2-0.4 0-0.8 3-1.3 4.4zm-60.9 100.8c-0.8 0.7-5 5.3-9.4 10.3-4.4 5-10.5 11.9-13.5 15.4-3 3.4-5.9 7-6.4 7.9-0.5 0.9-2.1 3-3.6 4.6-1.5 1.6-6.1 7.5-10.2 13-4.1 5.5-10.4 14.3-14 19.5-3.6 5.2-9.2 14-12.5 19.5-3.2 5.5-6.8 12-8 14.5-1.1 2.5-2.7 6.1-3.6 8-0.8 1.9-2.5 6-3.6 9-1.1 3-2.7 8.2-3.5 11.5-0.9 3.3-1.6 8.7-1.6 12 0 3.3 0.7 8.3 1.5 11 0.8 2.8 2.6 6.4 4 8 1.3 1.6 2.1 3.3 1.8 3.8-0.4 0.4 1.1 0.7 3.3 0.7 2.1 0 5.2-0.8 6.9-1.8 1.6-1 9.1-8.5 16.6-16.8 7.5-8.2 18.1-20 23.5-26.2 5.4-6.3 11.9-13.8 14.4-16.7 2.5-2.9 7-8.2 10-11.7 3-3.6 12.7-15 21.5-25.4 8.8-10.4 19.3-22.9 23.5-27.8 4.1-4.9 9.3-11.2 11.6-14l4.1-5.1c-7.9-2-14.5-4.3-19.7-6.4-5.2-2.1-12.4-5.6-16-7.7-3.6-2.1-8.6-5.2-11.1-7-3.6-2.6-4.9-3-6-2.1z"/>
		<path id="Path 3" class="s3" d="m121.5 5.8c-2.8 1-8.6 3.7-13 6-4.4 2.3-11.8 7.3-16.5 11-5.1 4.1-10 9.1-12.3 12.5-2 3.2-3.2 5.5-2.7 5.2 0.5-0.3 1 0.1 1 0.8 0 0.6 1.2 2.4 2.7 3.9 1.6 1.5 7.8 4.9 13.8 7.6 6 2.7 15 6.4 20 8.2 5 1.8 15.8 5.7 24 8.7 8.3 3 21.3 7.9 29 11 7.7 3.1 16.8 6.7 20.3 8 3.4 1.2 8.9 3.6 12.2 5.3 4.9 2.5 5.1 3.2 6.7 6.7 1 2.4 5 10 8.7 14.9 3.8 5 11.1 13 15.1 16.4 4.1 3.6 10 8.1 13.5 11.2 3.6 3.1 9.7 8.3 13.5 11.5 3.9 3.2 10.3 9.9 15.8 13.6 5.4 3.6 14.4 8.9 19.4 11.4 4.9 2.6 8 4.3 9.7 2.8 0.5-0.5 6.5 6.5 11.3 13.8 4.7 7.2 9.6 14.8 10.9 16.7 1.2 1.9 3.4 5.5 5 8 1.5 2.5 5.2 8.8 8.2 14 3.1 5.2 8.2 14.4 11.4 20.5 3.2 6.1 10.1 19.7 15.3 30.3 5.2 10.5 9.5 19.4 9.5 19.7 0 0.3 2.4 5.6 5.3 11.8 3 6.1 8.3 17.5 11.8 25.2 3.5 7.7 7.7 16 9.4 18.5 1.6 2.5 3.8 4.6 4.8 4.7 1.3 0.2 1.8-0.7 2.3-4.4 0.4-2.7 0.4-8.9 0-13.8-0.3-4.9-1.5-14.6-2.6-21.5-1.2-6.9-3.4-18.4-5.1-25.5-1.6-7.1-3.9-15.9-5-19.5-1.1-3.6-4-12.1-6.5-19-2.5-6.9-7.3-18.4-10.6-25.5-3.4-7.1-9.1-18.4-12.8-25-3.7-6.6-9.3-16.1-12.5-21-3.2-4.9-9-13.5-13-19-4-5.5-9.8-14.9-12.9-21-3.2-6.1-6.7-12-7.9-13.2l-2.2-2.2c-7.3 9.8-10.5 12.8-13 14-3.4 1.6-4.7 1.8-8.7 0.9-2.7-0.5-6.3-1.7-8-2.6-1.8-1-6.7-4-10.8-6.8-4.1-2.8-17.7-12.3-21.1-15.5-3.2-3.1-8-6.9-11.7-11.2-3.6-4.2-8.4-8.5-9.7-11.4-1.3-2.7-2.5-6.7-2.5-8.2 0-1.5 0-4.1 1.2-5.7 1.3-1.6 4.4-3.3 6.6-4.3 2.2-1 5.2-1.5 7.5-2.3 2.4-0.9 3.5 0.4 3.1 1.3-0.3 0.6 0.4 0.2 1.5-1l2.1-2.3c-13.6-11-21.6-17.2-26.5-20.9-4.9-3.7-12.6-9.2-17-12.2-4.4-3.1-13.4-9-20-13.1-6.6-4.1-17.4-10.4-24-14.1-6.6-3.7-16.3-8.5-21.5-10.8-5.2-2.3-11.3-4.4-13.5-4.6-2.3-0.2-6.2 0.5-9 1.5z"/>
		<path id="Path 4" class="s4" d="m261.8 69.9c-2.7 2-2.8 2.2-1.5 6.3 0.7 2.4 2.5 6.4 4 9 1.5 2.7 6.9 8.9 11.9 13.9 5.1 5 13.6 12.1 18.8 15.7 5.2 3.6 11.1 7.2 13 8.1 1.9 0.8 6.1 1.7 9.2 2 5.7 0.6 5.8 0.6 6.9-2.4 0.7-1.7 1-4.8 0.7-7-0.3-2.2-1.5-6-2.7-8.5-1.2-2.5-4.6-7.4-7.7-11-3-3.6-9.4-9.4-14.2-13-4.8-3.6-12.3-8.3-16.7-10.4-5.4-2.6-9.8-4.1-13.5-4.4-4.5-0.3-6 0-8.3 1.7z"/>
		<path id="Path 5" class="s1" d="m238.1 83.9c-2.5 1-5.3 3.1-6.3 4.7-1 1.6-1.9 4.1-1.8 5.6 0 1.6 1.2 5.2 2.6 8 1.5 2.9 5.9 8.7 9.8 12.9 3.9 4.2 10.8 10.4 15.4 13.8 4.5 3.3 14.8 10 15.5 9.8 0.7-0.2-5.6-4.8-6.8-5.3-1.1-0.5-5.4-4.2-9.6-8.4-4.2-4.1-9.3-10-11.3-13-2.3-3.4-3.9-7.2-4.3-10-0.5-4-0.2-5.2 2.9-10 1.9-3 5.7-7.3 6.4-8.5 1.1-2.1 1.5-2-4.3-1.5-2.1 0.2-5.8 0.9-8.2 1.9z"/>
		<path id="Path 6" class="s5" d="m197 109.8c-4.6 7-8.6 13.8-8.8 15.2-0.2 1.4 0.6 4.5 1.8 7 1.3 2.5 4 7 6 10 2 3 8.2 10 13.6 15.5 5.5 5.5 15.4 14.1 21.9 19 6.6 5 16.2 11.7 21.3 15 5.1 3.3 9.3 6.3 9.2 6.8 0 0.4 0.4 0.5 1 0.2 0.6-0.3 4.5 1.1 8.8 3.1 4.2 2 10.8 4.3 14.7 5.1 4.2 1 7.5 1.2 8.3 0.7 0.8-0.5 3.4-6 5.8-12.1l4.4-11.3c-12-5.5-19.1-9.4-23.5-12.1-4.4-2.8-9.6-6.1-11.5-7.5-1.9-1.4-7.3-5.5-11.9-9.2-4.6-3.7-13.1-11-19-16.4-5.8-5.3-12.3-11.6-14.3-14-2-2.3-5.7-6.9-8.2-10-2.5-3.2-5.6-7.7-6.8-10-1.2-2.4-2.7-5.1-3.3-6-1-1.5-2.3 0-9.5 11z"/>
	</g>
</svg>