<svg width="1920" height="1080" viewBox="0 0 1920 1080" fill="none" xmlns="http://www.w3.org/2000/svg">
<g clip-path="url(#clip0_22_2)">
<rect width="1920" height="1080" fill="#1B222D"/>
<g clip-path="url(#clip1_22_2)">
<path d="M59.7411 -104.646C-72.5972 -65.2768 -147.779 73.9393 -108.646 206.278C-69.2768 338.379 69.9393 413.797 202.278 374.665C334.379 335.296 409.797 196.079 370.665 63.7411C331.296 -68.5972 192.079 -143.779 59.7411 -104.646Z" fill="#A1B9A5"/>
<path d="M337.699 89.1178C337.699 220.508 231.212 326.995 99.8221 326.995C8.98774 326.995 -69.9884 276.004 -110.069 201.06C-81.1352 307.073 15.8655 384.863 130.891 384.863C268.921 384.863 380.863 272.921 380.863 134.891C380.863 53.543 341.731 -19.0296 281.491 -64.5654C316.591 -23.0614 337.699 30.538 337.699 89.1178Z" fill="#7B9186"/>
<path d="M-52.6753 85.5604C-55.7585 95.2841 -65.9566 100.976 -75.6804 98.1301C-85.6413 95.047 -91.0961 84.8489 -88.2502 75.1251C-79.2379 44.2936 -63.585 16.0709 -43.4259 -8.35713C-22.7925 -33.0223 2.58421 -53.6557 31.0441 -68.8343C40.0563 -73.5776 51.4403 -70.2573 56.1836 -61.0079C60.9269 -51.9956 57.3694 -40.8488 48.3571 -36.1055C23.9291 -23.2986 2.34704 -5.74831 -14.966 15.3594C-32.042 35.7556 -45.086 59.7093 -52.6753 85.5604ZM99.1106 -54.8416C89.1496 -52.7071 79.1886 -58.8734 76.817 -68.8343C74.6825 -78.7953 80.8488 -88.7562 90.8098 -90.8907C95.7112 -91.9975 100.85 -93.0252 106.226 -93.9739C111.443 -94.7644 116.661 -95.3968 121.878 -95.8712C131.839 -96.8198 140.852 -89.2305 141.8 -79.0324C142.749 -68.8343 135.16 -59.822 125.199 -59.1105C120.772 -58.6362 116.345 -58.0828 111.917 -57.4504C107.807 -56.6598 103.538 -55.7902 99.1106 -54.8416Z" fill="#C5DCBD"/>
<path d="M93.4186 360.909C114.289 360.909 131.365 343.834 131.365 322.963C131.365 302.092 114.289 285.016 93.4186 285.016C72.5481 285.016 55.4722 302.092 55.4722 322.963C55.4722 343.834 72.5481 360.909 93.4186 360.909Z" fill="#7B9186"/>
<path d="M151.999 307.547C164.331 307.547 174.529 297.586 174.529 285.254C174.529 272.684 164.331 262.723 151.999 262.723C139.666 262.723 129.705 272.684 129.705 285.254C129.705 297.586 139.666 307.547 151.999 307.547Z" fill="#7B9186"/>
<path d="M41.4794 307.31C45.7484 307.31 49.3059 303.753 49.3059 299.246C49.3059 294.977 45.7484 291.42 41.4794 291.42C36.9733 291.42 33.4158 294.977 33.4158 299.246C33.4158 303.753 36.9733 307.31 41.4794 307.31Z" fill="#7B9186"/>
<path d="M324.181 151.73C348.371 151.492 368.056 131.808 368.056 107.617C368.056 83.4259 348.371 63.7411 324.181 63.7411C299.99 63.7411 280.305 83.4259 280.305 107.617C280.305 131.808 299.99 151.492 324.181 151.492V151.73Z" fill="#7B9186"/>
<path d="M324.181 133.942C338.648 133.942 350.506 122.084 350.506 107.617C350.506 93.3868 338.648 81.5286 324.181 81.5286C309.714 81.5286 298.092 93.3868 298.092 107.617C298.092 122.084 309.714 133.942 324.181 133.942Z" fill="#A1B9A5"/>
<path d="M286.946 197.265C297.855 197.265 306.63 188.49 306.63 177.581C306.63 166.908 297.855 157.896 286.946 157.896C276.273 157.896 267.498 166.908 267.498 177.581C267.498 188.49 276.273 197.265 286.946 197.265Z" fill="#7B9186"/>
<path d="M330.11 54.4917C337.225 54.4917 342.917 48.7997 342.917 41.6847C342.917 34.5698 337.225 28.8778 330.11 28.8778C322.995 28.8778 317.303 34.5698 317.303 41.6847C317.303 48.7997 322.995 54.4917 330.11 54.4917Z" fill="#7B9186"/>
<path d="M257.3 313.713C280.779 313.713 299.99 294.503 299.99 271.024C299.99 247.544 280.779 228.334 257.3 228.334C233.821 228.334 214.61 247.544 214.61 271.024C214.61 294.503 233.821 313.713 257.3 313.713Z" fill="#A1B9A5"/>
<path d="M217.219 332.924C223.86 332.924 229.314 327.469 229.314 320.828C229.314 313.951 223.86 308.496 217.219 308.496C210.341 308.496 204.886 313.951 204.886 320.828C204.886 327.469 210.341 332.924 217.219 332.924Z" fill="#A1B9A5"/>
<path d="M308.29 247.544C311.611 247.544 314.457 244.698 314.457 241.378C314.457 238.058 311.611 235.212 308.29 235.212C304.97 235.212 302.124 238.058 302.124 241.378C302.124 244.698 304.97 247.544 308.29 247.544Z" fill="#A1B9A5"/>
<path d="M276.036 227.622C280.305 227.622 283.862 224.065 283.862 219.796C283.862 215.29 280.305 211.732 276.036 211.732C271.53 211.732 267.972 215.29 267.972 219.796C267.972 224.065 271.53 227.622 276.036 227.622Z" fill="#7B9186"/>
<path d="M9.4621 222.879C35.7875 222.879 57.1323 201.534 57.1323 175.209C57.1323 148.884 35.7875 127.301 9.4621 127.301C-16.8633 127.301 -38.4453 148.884 -38.4453 175.209C-38.4453 201.534 -16.8633 222.879 9.4621 222.879Z" fill="#C5DCBD"/>
<path d="M9.46203 208.649C27.9609 208.649 42.9024 193.708 42.9024 175.209C42.9024 156.71 27.9609 141.531 9.46203 141.531C-9.03687 141.531 -24.2155 156.71 -24.2155 175.209C-24.2155 193.708 -9.03687 208.649 9.46203 208.649Z" fill="#A1B9A5"/>
<path d="M6.8533 115.206C16.5771 115.206 24.6407 107.142 24.6407 97.4186C24.6407 87.4577 16.5771 79.6312 6.8533 79.6312C-3.10764 79.6312 -11.1713 87.4577 -11.1713 97.4186C-11.1713 107.142 -3.10764 115.206 6.8533 115.206Z" fill="#C5DCBD"/>
<path d="M174.055 5.16127C184.016 5.16127 191.842 -2.90235 191.842 -12.6261C191.842 -22.5871 184.016 -30.4135 174.055 -30.4135C164.331 -30.4135 156.267 -22.5871 156.267 -12.6261C156.267 -2.90235 164.331 5.16127 174.055 5.16127Z" fill="#C5DCBD"/>
<path d="M160.536 159.082C173.818 159.082 184.727 148.172 184.727 134.891C184.727 121.372 173.818 110.463 160.536 110.463C147.018 110.463 136.108 121.372 136.108 134.891C136.108 148.172 147.018 159.082 160.536 159.082Z" fill="#C5DCBD"/>
</g>
<g clip-path="url(#clip2_22_2)">
<path d="M1626.08 579.531C1427.93 638.585 1314.8 847.409 1373.5 1045.92C1432.56 1244.07 1641.38 1357.2 1839.89 1298.5C2038.4 1239.44 2151.17 1030.62 2092.47 832.112C2033.42 633.604 1824.59 520.832 1626.08 579.531Z" fill="#75C7D2"/>
<path d="M2043.38 870.177C2043.38 1067.26 1883.29 1226.99 1686.56 1226.99C1549.95 1226.99 1431.49 1150.51 1371.37 1038.09C1414.77 1197.11 1560.27 1313.79 1733.16 1313.79C1940.21 1313.79 2107.77 1145.88 2107.77 938.836C2107.77 816.814 2049.42 707.956 1958.71 639.652C2011.36 701.908 2043.38 782.307 2043.38 870.177Z" fill="#54B9C3"/>
<path d="M1457.46 864.841C1452.83 879.426 1437.54 887.964 1422.95 883.695C1408.01 879.071 1399.83 863.773 1404.1 849.188C1417.61 802.94 1441.09 760.606 1471.33 723.964C1502.28 686.967 1540.35 656.016 1583.04 633.249C1596.91 626.134 1613.63 631.114 1620.75 644.988C1627.86 658.507 1622.53 675.227 1609.01 682.342C1572.37 701.552 1539.99 727.878 1514.02 759.539C1488.41 790.134 1468.84 826.064 1457.46 864.841ZM1685.14 654.238C1670.2 657.439 1655.25 648.19 1651.7 633.249C1648.5 618.307 1657.74 603.366 1672.69 600.164C1680.04 598.504 1687.75 596.962 1695.81 595.539C1703.64 594.353 1711.46 593.405 1719.29 592.693C1734.59 591.27 1747.75 602.654 1749.17 617.951C1750.6 633.249 1739.57 646.767 1724.27 647.834C1717.63 648.546 1710.99 649.376 1704.35 650.324C1698.18 651.51 1691.78 652.815 1685.14 654.238Z" fill="#A5D9E7"/>
<path d="M1910.33 1269.33C1926.69 1255.81 1953.73 1239.8 1953.73 1227.7C1953.73 1212.41 1952.66 1188.93 1970.8 1176.48C1988.95 1164.02 2009.58 1157.62 2009.58 1140.9C2009.58 1124.54 2008.16 1107.82 2017.05 1091.1C2026.3 1074.02 2031.28 1077.93 2031.28 1064.42C2031.28 1050.54 2027.37 1045.92 2017.76 1045.56C2008.51 1045.56 2004.96 1036.31 2004.96 1036.31C1994.28 1011.76 1978.27 1027.06 1960.13 1011.76C1941.99 996.467 1928.47 964.45 1903.92 964.45C1879.38 964.45 1879.02 965.873 1870.48 959.825C1862.3 953.778 1859.81 947.73 1854.12 940.259C1848.07 933.144 1844.51 932.788 1829.22 932.788C1813.92 932.788 1812.85 919.27 1803.6 919.27C1794.35 919.27 1792.93 919.27 1779.77 919.27C1766.6 919.27 1764.83 922.472 1753.8 933.856C1743.12 945.595 1733.88 950.576 1724.63 948.086C1715.38 945.595 1708.97 939.903 1708.97 931.721C1708.97 923.539 1708.97 924.606 1708.97 911.088C1708.97 897.214 1705.77 895.079 1698.3 890.81C1690.47 886.541 1684.07 880.849 1692.96 871.6C1701.86 862.706 1707.91 852.389 1702.57 852.389C1697.23 852.389 1687.98 852.389 1675.89 852.389C1663.79 852.389 1658.46 853.457 1653.12 858.793C1647.43 864.485 1642.09 873.023 1638.18 871.955C1634.62 871.244 1631.42 864.129 1632.84 860.216C1633.91 856.658 1643.87 821.439 1657.39 810.767C1670.91 800.094 1684.07 805.431 1689.76 810.767C1695.45 816.103 1696.17 836.736 1715.02 831.044C1733.52 825.352 1739.57 783.374 1752.02 771.99C1764.47 760.606 1799.69 767.365 1821.75 735.704C1844.16 704.042 1855.9 678.428 1870.13 678.428C1884.36 678.428 1885.78 678.428 1908.55 678.428C1931.32 678.428 1939.14 672.736 1939.14 651.392C1939.14 640.363 1945.9 637.517 1952.66 635.027C1938.67 625.066 1924.08 616.054 1908.9 607.99C1905.35 609.413 1901.08 611.904 1897.16 616.528C1886.85 628.268 1876.89 635.383 1868.7 631.825C1860.52 627.912 1859.81 624.355 1850.21 624.355C1840.6 624.355 1833.84 629.691 1830.28 636.45C1826.73 643.565 1819.25 654.593 1811.78 654.593C1804.31 654.593 1802.18 651.747 1802.18 648.19C1802.18 644.632 1802.18 638.585 1802.18 631.825C1802.18 625.066 1800.04 616.528 1785.81 616.528C1771.94 616.528 1761.98 613.327 1768.74 604.077C1774.43 596.251 1782.26 575.973 1798.98 569.925C1743.12 559.964 1684.07 562.455 1626.08 579.53C1544.62 603.721 1477.74 653.17 1431.13 716.849C1444.65 740.684 1455.68 758.828 1461.02 762.741C1479.87 776.615 1493.03 795.47 1517.58 795.47C1542.13 795.47 1561.34 798.316 1561.34 822.151C1561.34 845.986 1551.73 845.986 1551.73 864.129C1551.73 882.272 1560.98 886.897 1572.37 886.897C1583.75 886.897 1591.22 886.897 1618.26 886.897C1644.94 886.897 1640.67 902.194 1660.59 902.194C1680.87 902.194 1679.8 918.558 1686.21 930.654C1692.61 942.749 1700.79 959.825 1721.78 959.825C1742.77 959.825 1739.21 977.613 1727.47 995.756C1716.09 1013.9 1699.01 1033.11 1699.01 1051.96C1699.01 1071.17 1698.3 1083.98 1722.85 1083.98C1747.75 1083.98 1729.61 1116 1759.85 1116C1790.08 1116 1787.59 1136.28 1787.59 1160.11C1787.59 1183.59 1800.4 1180.74 1800.4 1196.4C1800.4 1212.05 1800.4 1217.03 1800.4 1237.66C1800.4 1258.3 1800.76 1270.04 1813.56 1282.13C1818.54 1286.76 1821.75 1293.87 1823.88 1302.77C1829.1 1301.34 1834.43 1299.92 1839.89 1298.5C1864.79 1291.03 1888.27 1281.07 1910.33 1269.33Z" fill="#33A638"/>
<path d="M1910.33 1269.33C1926.69 1255.81 1953.73 1239.8 1953.73 1227.7C1953.73 1212.41 1952.66 1188.93 1970.8 1176.48C1988.95 1164.03 2009.58 1157.62 2009.58 1140.9C2009.58 1124.54 2008.16 1107.82 2017.05 1091.1C2026.3 1074.02 2031.28 1077.93 2031.28 1064.42C2031.28 1050.54 2027.37 1045.92 2017.76 1045.56C2008.51 1045.56 2004.96 1036.31 2004.96 1036.31C2004.48 1035.36 2004.01 1034.53 2003.53 1033.82C1961.55 1115.64 1888.63 1178.97 1800.4 1208.49V1237.66C1800.4 1258.3 1800.76 1270.04 1813.56 1282.13C1818.54 1286.76 1821.75 1293.87 1823.88 1302.77C1829.1 1301.34 1834.43 1299.92 1839.89 1298.5C1860.76 1292.09 1880.8 1284.15 1900.01 1274.66L1901.08 1274.31C1902.5 1273.6 1903.92 1272.88 1905.35 1272.17C1907.01 1271.22 1908.67 1270.28 1910.33 1269.33Z" fill="#2E923A"/>
<path d="M1451.41 750.645C1457.58 741.396 1464.22 732.502 1471.33 723.964C1502.28 686.967 1540.35 656.016 1583.04 633.249C1596.91 626.134 1613.63 631.114 1620.75 644.988C1627.86 658.507 1622.53 675.227 1609.01 682.342C1572.37 701.552 1539.99 727.878 1514.02 759.539C1506.43 768.551 1499.32 778.038 1492.68 787.999C1481.65 781.24 1472.4 771.279 1461.02 762.741C1458.88 760.962 1455.32 756.693 1451.41 750.645ZM1685.14 654.238C1670.2 657.439 1655.25 648.19 1651.7 633.249C1648.5 618.307 1657.75 603.366 1672.69 600.164C1680.04 598.504 1687.75 596.962 1695.81 595.539C1703.64 594.353 1711.46 593.405 1719.29 592.693C1734.59 591.27 1747.75 602.654 1749.17 617.951C1750.6 633.249 1739.57 646.767 1724.27 647.834C1717.63 648.546 1710.99 649.376 1704.35 650.324C1698.18 651.51 1691.78 652.815 1685.14 654.238Z" fill="#53B233"/>
</g>
</g>
<defs>
<clipPath id="clip0_22_2">
<rect width="1920" height="1080" fill="white"/>
</clipPath>
<clipPath id="clip1_22_2">
<rect width="500" height="500" fill="white" transform="translate(-119 -115)"/>
</clipPath>
<clipPath id="clip2_22_2">
<rect width="750" height="750" fill="white" transform="translate(1358 564)"/>
</clipPath>
</defs>
</svg>
