<svg version="1.2" xmlns="http://www.w3.org/2000/svg" viewBox="0 0 300 300" width="300" height="300">
	<title>2797009-ai</title>
	<style>
		.s0 { fill: #75c7d2 } 
		.s1 { fill: #54b9c3 } 
		.s2 { fill: #a5d9e7 } 
		.s3 { fill: #33a638 } 
		.s4 { fill: #2e923a } 
		.s5 { fill: #53b233 } 
	</style>
	<g id="Earth">
		<path id="&lt;Path&gt;" class="s0" d="m120.7 52.2c-55.7 16.6-87.5 75.3-71 131.1 16.6 55.7 75.3 87.5 131.1 71 55.8-16.6 87.5-75.3 71-131.1-16.6-55.8-75.3-87.5-131.1-71z"/>
		<path id="&lt;Path&gt;" class="s1" d="m238 133.9c0 55.4-45 100.3-100.3 100.3-38.4 0-71.7-21.5-88.6-53.1 12.2 44.7 53.1 77.5 101.7 77.5 58.2 0 105.3-47.2 105.3-105.4 0-34.3-16.4-64.9-41.9-84.1 14.8 17.5 23.8 40.1 23.8 64.8z"/>
		<path id="&lt;Compound Path&gt;" class="s2" d="m73.3 132.4c-1.3 4.1-5.6 6.5-9.7 5.3-4.2-1.3-6.5-5.6-5.3-9.7 3.8-13 10.4-24.9 18.9-35.2 8.7-10.4 19.4-19.1 31.4-25.5 3.9-2 8.6-0.6 10.6 3.3 2 3.8 0.5 8.5-3.3 10.5-10.3 5.4-19.4 12.8-26.7 21.7-7.2 8.6-12.7 18.7-15.9 29.6zm64-59.2c-4.2 0.9-8.4-1.7-9.4-5.9-0.9-4.2 1.7-8.4 5.9-9.3q3.1-0.7 6.5-1.3 3.3-0.5 6.6-0.8c4.3-0.4 8 2.8 8.4 7.1 0.4 4.3-2.7 8.1-7 8.4q-2.8 0.3-5.6 0.7-2.6 0.5-5.4 1.1z"/>
		<path id="&lt;Path&gt;" class="s3" d="m200.6 246.1c4.6-3.8 12.2-8.3 12.2-11.7 0-4.3-0.3-10.9 4.8-14.4 5.1-3.5 10.9-5.3 10.9-10 0-4.6-0.4-9.3 2.1-14 2.6-4.8 4-3.7 4-7.5 0-3.9-1.1-5.2-3.8-5.3-2.6 0-3.6-2.6-3.6-2.6-3-6.9-7.5-2.6-12.6-6.9-5.1-4.3-8.9-13.3-15.8-13.3-6.9 0-7 0.4-9.4-1.3-2.3-1.7-3-3.4-4.6-5.5-1.7-2-2.7-2.1-7-2.1-4.3 0-4.6-3.8-7.2-3.8-2.6 0-3 0-6.7 0-3.7 0-4.2 0.9-7.3 4.1-3 3.3-5.6 4.7-8.2 4-2.6-0.7-4.4-2.3-4.4-4.6 0-2.3 0-2 0-5.8 0-3.9-0.9-4.5-3-5.7-2.2-1.2-4-2.8-1.5-5.4 2.5-2.5 4.2-5.4 2.7-5.4-1.5 0-4.1 0-7.5 0-3.4 0-4.9 0.3-6.4 1.8-1.6 1.6-3.1 4-4.2 3.7-1-0.2-1.9-2.2-1.5-3.3 0.3-1 3.1-10.9 6.9-13.9 3.8-3 7.5-1.5 9.1 0 1.6 1.5 1.8 7.3 7.1 5.7 5.2-1.6 6.9-13.4 10.4-16.6 3.5-3.2 13.4-1.3 19.6-10.2 6.3-8.9 9.6-16.1 13.6-16.1 4 0 4.4 0 10.8 0 6.4 0 8.6-1.6 8.6-7.6 0-3.1 1.9-3.9 3.8-4.6q-5.9-4.2-12.3-7.6c-1 0.4-2.2 1.1-3.3 2.4-2.9 3.3-5.7 5.3-8 4.3-2.3-1.1-2.5-2.1-5.2-2.1-2.7 0-4.6 1.5-5.6 3.4-1 2-3.1 5.1-5.2 5.1-2.1 0-2.7-0.8-2.7-1.8 0-1 0-2.7 0-4.6 0-1.9-0.6-4.3-4.6-4.3-3.9 0-6.7-0.9-4.8-3.5 1.6-2.2 3.8-7.9 8.5-9.6-15.7-2.8-32.3-2.1-48.6 2.7-22.9 6.8-41.7 20.7-54.8 38.6 3.8 6.7 6.9 11.8 8.4 12.9 5.3 3.9 9 9.2 15.9 9.2 6.9 0 12.3 0.8 12.3 7.5 0 6.7-2.7 6.7-2.7 11.8 0 5.1 2.6 6.4 5.8 6.4 3.2 0 5.3 0 12.9 0 7.5 0 6.3 4.3 11.9 4.3 5.7 0 5.4 4.6 7.2 8 1.8 3.4 4.1 8.2 10 8.2 5.9 0 4.9 5 1.6 10.1-3.2 5.1-8 10.5-8 15.8 0 5.4-0.2 9 6.7 9 7 0 1.9 9 10.4 9 8.5 0 7.8 5.7 7.8 12.4 0 6.6 3.6 5.8 3.6 10.2 0 4.4 0 5.8 0 11.6 0 5.8 0.1 9.1 3.7 12.5 1.4 1.3 2.3 3.3 2.9 5.8q2.2-0.6 4.5-1.2c7-2.1 13.6-4.9 19.8-8.2z"/>
		<path id="&lt;Path&gt;" class="s4" d="m200.6 246.1c4.6-3.8 12.2-8.3 12.2-11.7 0-4.3-0.3-10.9 4.8-14.4 5.1-3.5 10.9-5.3 10.9-10 0-4.6-0.4-9.3 2.1-14 2.6-4.8 4-3.7 4-7.5 0-3.9-1.1-5.2-3.8-5.3-2.6 0-3.6-2.6-3.6-2.6q-0.2-0.4-0.4-0.7c-11.8 23-32.3 40.8-57.1 49.1v8.2c0 5.8 0.1 9.1 3.7 12.5 1.4 1.3 2.3 3.3 2.9 5.8q2.2-0.6 4.5-1.2 8.8-2.7 16.9-6.7l0.3-0.1q0.6-0.3 1.2-0.6 0.7-0.4 1.4-0.8z"/>
		<path id="&lt;Compound Path&gt;" class="s5" d="m71.6 100.3q2.6-3.9 5.6-7.5c8.7-10.4 19.4-19.1 31.4-25.5 3.9-2 8.6-0.6 10.6 3.3 2 3.8 0.5 8.5-3.3 10.5-10.3 5.4-19.4 12.8-26.7 21.7q-3.2 3.8-6 8c-3.1-1.9-5.7-4.7-8.9-7.1-0.6-0.5-1.6-1.7-2.7-3.4zm65.7-27.1c-4.2 0.9-8.4-1.7-9.4-5.9-0.9-4.2 1.7-8.4 5.9-9.3q3.1-0.7 6.5-1.3 3.3-0.5 6.6-0.8c4.3-0.4 8 2.8 8.4 7.1 0.4 4.3-2.7 8.1-7 8.4q-2.8 0.3-5.6 0.7-2.6 0.5-5.4 1.1z"/>
		<path id="&lt;Path&gt;" class="s1" d="m111.2 238.1c6.9 0 12.5-5.6 12.5-12.4 0-6.9-5.6-12.4-12.5-12.4-6.8 0-12.4 5.5-12.4 12.4 0 6.8 5.6 12.4 12.4 12.4z"/>
		<path id="&lt;Path&gt;" class="s1" d="m90.2 215.5c3.8 0 6.9-3.1 6.9-6.9 0-3.8-3.1-6.9-6.9-6.9-3.8 0-6.9 3.1-6.9 6.9 0 3.8 3.1 6.9 6.9 6.9z"/>
		<path id="&lt;Path&gt;" class="s1" d="m135.6 231.5c1.8 0 3.2-1.4 3.2-3.1 0-1.8-1.4-3.2-3.2-3.2-1.7 0-3.2 1.4-3.2 3.2 0 1.7 1.5 3.1 3.2 3.1z"/>
		<path id="&lt;Path&gt;" class="s1" d="m226.4 169.9c1.7 0 3.1-1.4 3.1-3.2 0-1.7-1.4-3.2-3.1-3.2-1.8 0-3.2 1.5-3.2 3.2 0 1.8 1.4 3.2 3.2 3.2z"/>
		<path id="&lt;Path&gt;" class="s1" d="m235.2 132c7.6 0 13.8-6.2 13.8-13.8 0-7.6-6.2-13.8-13.8-13.8-7.6 0-13.8 6.2-13.8 13.8 0 7.6 6.2 13.8 13.8 13.8z"/>
		<path id="&lt;Path&gt;" class="s1" d="m222.8 149.3c3.8 0 6.9-3.1 6.9-6.9 0-3.8-3.1-6.9-6.9-6.9-3.8 0-6.9 3.1-6.9 6.9 0 3.8 3.1 6.9 6.9 6.9z"/>
	</g>
</svg>