<svg width="25" height="26" viewBox="0 0 25 26" fill="none" xmlns="http://www.w3.org/2000/svg">
<path d="M10.6912 21.3824C13.0633 21.3819 15.367 20.5878 17.2355 19.1265L23.1103 25.0013L25 23.1117L19.1252 17.2369C20.5872 15.3681 21.3818 13.0639 21.3824 10.6912C21.3824 4.79633 16.586 0 10.6912 0C4.79633 0 0 4.79633 0 10.6912C0 16.586 4.79633 21.3824 10.6912 21.3824ZM10.6912 2.6728C15.1133 2.6728 18.7096 6.26904 18.7096 10.6912C18.7096 15.1133 15.1133 18.7096 10.6912 18.7096C6.26904 18.7096 2.6728 15.1133 2.6728 10.6912C2.6728 6.26904 6.26904 2.6728 10.6912 2.6728Z" fill="#89A6F4"/>
<path d="M12.5782 8.80151C13.0847 9.30934 13.364 9.98021 13.364 10.6912H16.0368C16.038 9.9888 15.8999 9.29316 15.6306 8.64446C15.3613 7.99576 14.9661 7.40687 14.4679 6.91184C12.4446 4.8912 8.93652 4.8912 6.91455 6.91184L8.80155 8.80418C9.81721 7.79119 11.5679 7.79386 12.5782 8.80151Z" fill="#89A6F4"/>
</svg>
